<mxfile host="app.diagrams.net" agent="Mozilla/5.0 (Windows NT 10.0; Win64; x64) AppleWebKit/537.36 (KHTML, like Gecko) Chrome/136.0.0.0 Safari/537.36" version="27.0.6">
  <diagram name="Page-1" id="R-vPG8aDCKArk0xyZ56-">
    <mxGraphModel dx="1426" dy="751" grid="1" gridSize="10" guides="1" tooltips="1" connect="1" arrows="1" fold="1" page="1" pageScale="1" pageWidth="827" pageHeight="1169" math="0" shadow="0">
      <root>
        <mxCell id="0" />
        <mxCell id="1" parent="0" />
        <mxCell id="xaYJ-8igGU0Rm3qxgjFF-3" value="Client" style="whiteSpace=wrap;html=1;aspect=fixed;fontSize=18;sketch=1;curveFitting=1;jiggle=2;rounded=0;labelBackgroundColor=none;" vertex="1" parent="1">
          <mxGeometry x="290" y="560" width="80" height="80" as="geometry" />
        </mxCell>
        <mxCell id="xaYJ-8igGU0Rm3qxgjFF-5" value="fs-warehouse" style="rounded=0;whiteSpace=wrap;html=1;fontSize=18;sketch=1;curveFitting=1;jiggle=2;labelBackgroundColor=none;" vertex="1" parent="1">
          <mxGeometry x="564" y="370" width="120" height="60" as="geometry" />
        </mxCell>
        <mxCell id="xaYJ-8igGU0Rm3qxgjFF-6" value="fs-service" style="rounded=0;whiteSpace=wrap;html=1;fontSize=18;sketch=1;curveFitting=1;jiggle=2;labelBackgroundColor=none;" vertex="1" parent="1">
          <mxGeometry x="270" y="370" width="120" height="60" as="geometry" />
        </mxCell>
        <mxCell id="xaYJ-8igGU0Rm3qxgjFF-8" value="fs-mock" style="rounded=0;whiteSpace=wrap;html=1;fontSize=18;sketch=1;curveFitting=1;jiggle=2;labelBackgroundColor=none;" vertex="1" parent="1">
          <mxGeometry x="270" y="150" width="120" height="60" as="geometry" />
        </mxCell>
        <mxCell id="xaYJ-8igGU0Rm3qxgjFF-13" value="&lt;b&gt;(1)&lt;/b&gt; GET&amp;nbsp;&lt;span style=&quot;color: rgb(33, 33, 33); font-family: Inter, system-ui, -apple-system, BlinkMacSystemFont, &amp;quot;Segoe UI&amp;quot;, Roboto, Oxygen, Ubuntu, Cantarell, &amp;quot;Fira Sans&amp;quot;, &amp;quot;Droid Sans&amp;quot;, Helvetica, Arial, sans-serif; text-align: left; white-space: pre-wrap;&quot;&gt;/fs/v1/flights?&lt;br&gt;source=BOM&amp;amp;destination=FRA&lt;br/&gt;&amp;amp;travelDate=2025-06-01&lt;/span&gt;" style="endArrow=classic;html=1;rounded=0;exitX=0.5;exitY=0;exitDx=0;exitDy=0;entryX=0.5;entryY=1;entryDx=0;entryDy=0;fontSize=14;sketch=1;curveFitting=1;jiggle=2;labelBackgroundColor=none;fontColor=default;" edge="1" parent="1">
          <mxGeometry x="-0.0769" y="110" width="50" height="50" relative="1" as="geometry">
            <mxPoint x="310" y="560" as="sourcePoint" />
            <mxPoint x="310" y="430" as="targetPoint" />
            <mxPoint as="offset" />
          </mxGeometry>
        </mxCell>
        <mxCell id="xaYJ-8igGU0Rm3qxgjFF-14" value="" style="endArrow=classic;html=1;rounded=0;exitX=0.25;exitY=0;exitDx=0;exitDy=0;entryX=0.25;entryY=1;entryDx=0;entryDy=0;sketch=1;curveFitting=1;jiggle=2;labelBackgroundColor=none;fontColor=default;" edge="1" parent="1">
          <mxGeometry width="50" height="50" relative="1" as="geometry">
            <mxPoint x="310" y="370" as="sourcePoint" />
            <mxPoint x="310" y="210" as="targetPoint" />
          </mxGeometry>
        </mxCell>
        <mxCell id="xaYJ-8igGU0Rm3qxgjFF-15" value="&lt;font style=&quot;font-size: 14px;&quot;&gt;&lt;font style=&quot;&quot;&gt;&lt;b style=&quot;&quot;&gt;(2)&lt;/b&gt;&amp;nbsp;GET&amp;nbsp;&lt;/font&gt;&lt;span style=&quot;color: rgb(33, 33, 33); font-family: Inter, system-ui, -apple-system, BlinkMacSystemFont, &amp;quot;Segoe UI&amp;quot;, Roboto, Oxygen, Ubuntu, Cantarell, &amp;quot;Fira Sans&amp;quot;, &amp;quot;Droid Sans&amp;quot;, Helvetica, Arial, sans-serif; text-align: left; white-space: pre-wrap;&quot;&gt;/mock/v1/klm/offers&lt;/span&gt;&lt;/font&gt;" style="edgeLabel;html=1;align=center;verticalAlign=middle;resizable=0;points=[];sketch=1;curveFitting=1;jiggle=2;rounded=0;labelBackgroundColor=none;" vertex="1" connectable="0" parent="xaYJ-8igGU0Rm3qxgjFF-14">
          <mxGeometry x="0.0625" y="-1" relative="1" as="geometry">
            <mxPoint as="offset" />
          </mxGeometry>
        </mxCell>
        <mxCell id="xaYJ-8igGU0Rm3qxgjFF-17" value="Message Queue of Offers" style="verticalLabelPosition=bottom;html=1;verticalAlign=top;align=center;shape=mxgraph.azure.queue_generic;pointerEvents=1;sketch=1;curveFitting=1;jiggle=2;rounded=0;labelBackgroundColor=none;" vertex="1" parent="1">
          <mxGeometry x="439.5" y="386.25" width="91.67" height="27.5" as="geometry" />
        </mxCell>
        <mxCell id="xaYJ-8igGU0Rm3qxgjFF-18" value="" style="endArrow=classic;html=1;rounded=0;entryX=0;entryY=0.5;entryDx=0;entryDy=0;entryPerimeter=0;exitX=1;exitY=0.5;exitDx=0;exitDy=0;sketch=1;curveFitting=1;jiggle=2;labelBackgroundColor=none;fontColor=default;" edge="1" parent="1">
          <mxGeometry width="50" height="50" relative="1" as="geometry">
            <mxPoint x="390" y="400" as="sourcePoint" />
            <mxPoint x="439.5" y="400" as="targetPoint" />
          </mxGeometry>
        </mxCell>
        <mxCell id="xaYJ-8igGU0Rm3qxgjFF-22" value="&lt;b&gt;&lt;font style=&quot;font-size: 14px;&quot;&gt;(4)&lt;/font&gt;&lt;/b&gt;" style="edgeLabel;html=1;align=center;verticalAlign=middle;resizable=0;points=[];sketch=1;curveFitting=1;jiggle=2;rounded=0;labelBackgroundColor=none;" vertex="1" connectable="0" parent="xaYJ-8igGU0Rm3qxgjFF-18">
          <mxGeometry x="-0.3191" y="2" relative="1" as="geometry">
            <mxPoint as="offset" />
          </mxGeometry>
        </mxCell>
        <mxCell id="xaYJ-8igGU0Rm3qxgjFF-19" value="" style="endArrow=classic;html=1;rounded=0;entryX=0;entryY=0.5;entryDx=0;entryDy=0;sketch=1;curveFitting=1;jiggle=2;labelBackgroundColor=none;fontColor=default;" edge="1" parent="1" target="xaYJ-8igGU0Rm3qxgjFF-5">
          <mxGeometry width="50" height="50" relative="1" as="geometry">
            <mxPoint x="539.1700000000001" y="400" as="sourcePoint" />
            <mxPoint x="589.17" y="350" as="targetPoint" />
          </mxGeometry>
        </mxCell>
        <mxCell id="xaYJ-8igGU0Rm3qxgjFF-20" value="fs-db" style="shape=cylinder3;whiteSpace=wrap;html=1;boundedLbl=1;backgroundOutline=1;size=15;sketch=1;curveFitting=1;jiggle=2;rounded=0;labelBackgroundColor=none;" vertex="1" parent="1">
          <mxGeometry x="594" y="480" width="60" height="80" as="geometry" />
        </mxCell>
        <mxCell id="xaYJ-8igGU0Rm3qxgjFF-21" value="" style="endArrow=classic;html=1;rounded=0;entryX=0.5;entryY=0;entryDx=0;entryDy=0;entryPerimeter=0;sketch=1;curveFitting=1;jiggle=2;labelBackgroundColor=none;fontColor=default;" edge="1" parent="1">
          <mxGeometry width="50" height="50" relative="1" as="geometry">
            <mxPoint x="624" y="430" as="sourcePoint" />
            <mxPoint x="624" y="480" as="targetPoint" />
          </mxGeometry>
        </mxCell>
        <mxCell id="xaYJ-8igGU0Rm3qxgjFF-25" value="&lt;font style=&quot;font-size: 14px;&quot;&gt;&lt;b&gt;(3) &lt;/b&gt;Offers&lt;/font&gt;" style="endArrow=classic;html=1;rounded=0;exitX=0.75;exitY=1;exitDx=0;exitDy=0;entryX=0.75;entryY=0;entryDx=0;entryDy=0;sketch=1;curveFitting=1;jiggle=2;labelBackgroundColor=none;fontColor=default;" edge="1" parent="1">
          <mxGeometry x="0.2375" width="50" height="50" relative="1" as="geometry">
            <mxPoint x="360" y="211" as="sourcePoint" />
            <mxPoint x="360" y="371" as="targetPoint" />
            <mxPoint as="offset" />
          </mxGeometry>
        </mxCell>
        <mxCell id="xaYJ-8igGU0Rm3qxgjFF-30" value="" style="endArrow=classic;html=1;rounded=0;sketch=1;hachureGap=4;jiggle=2;curveFitting=1;fontFamily=Architects Daughter;fontSource=https%3A%2F%2Ffonts.googleapis.com%2Fcss%3Ffamily%3DArchitects%2BDaughter;exitX=0.75;exitY=1;exitDx=0;exitDy=0;entryX=0.863;entryY=0.038;entryDx=0;entryDy=0;entryPerimeter=0;" edge="1" parent="1" source="xaYJ-8igGU0Rm3qxgjFF-6" target="xaYJ-8igGU0Rm3qxgjFF-3">
          <mxGeometry width="50" height="50" relative="1" as="geometry">
            <mxPoint x="390" y="410" as="sourcePoint" />
            <mxPoint x="440" y="360" as="targetPoint" />
          </mxGeometry>
        </mxCell>
        <mxCell id="xaYJ-8igGU0Rm3qxgjFF-31" value="&lt;p&gt;&lt;font face=&quot;Times New Roman&quot; style=&quot;font-size: 14px;&quot;&gt;&lt;b&gt;(5)&lt;/b&gt; Response&lt;/font&gt;&lt;/p&gt;" style="edgeLabel;html=1;align=center;verticalAlign=middle;resizable=0;points=[];sketch=1;hachureGap=4;jiggle=2;curveFitting=1;fontFamily=Architects Daughter;fontSource=https%3A%2F%2Ffonts.googleapis.com%2Fcss%3Ffamily%3DArchitects%2BDaughter;" vertex="1" connectable="0" parent="xaYJ-8igGU0Rm3qxgjFF-30">
          <mxGeometry x="0.5487" y="-2" relative="1" as="geometry">
            <mxPoint y="-33" as="offset" />
          </mxGeometry>
        </mxCell>
      </root>
    </mxGraphModel>
  </diagram>
</mxfile>
